<?xml version="1.0" encoding="UTF-8" standalone="no"?>
<!-- Created with Inkscape (http://www.inkscape.org/) -->

<svg
   width="210mm"
   height="297mm"
   viewBox="0 0 210 297"
   version="1.1"
   id="svg5"
   sodipodi:docname="Design.svg"
   inkscape:version="1.1 (c68e22c387, 2021-05-23)"
   xmlns:inkscape="http://www.inkscape.org/namespaces/inkscape"
   xmlns:sodipodi="http://sodipodi.sourceforge.net/DTD/sodipodi-0.dtd"
   xmlns:xlink="http://www.w3.org/1999/xlink"
   xmlns="http://www.w3.org/2000/svg"
   xmlns:svg="http://www.w3.org/2000/svg">
  <sodipodi:namedview
     id="namedview7"
     pagecolor="#ffffff"
     bordercolor="#666666"
     borderopacity="1.0"
     inkscape:pageshadow="2"
     inkscape:pageopacity="0.0"
     inkscape:pagecheckerboard="0"
     inkscape:document-units="mm"
     showgrid="false"
     inkscape:snap-bbox="true"
     inkscape:bbox-paths="false"
     inkscape:snap-global="true"
     inkscape:snap-bbox-midpoints="true"
     inkscape:zoom="0.94867184"
     inkscape:cx="500.70001"
     inkscape:cy="1911.6199"
     inkscape:window-width="1902"
     inkscape:window-height="1033"
     inkscape:window-x="-10"
     inkscape:window-y="18"
     inkscape:window-maximized="0"
     inkscape:current-layer="layer1" />
  <defs
     id="defs2">
    <linearGradient
       inkscape:collect="always"
       id="linearGradient80527">
      <stop
         style="stop-color:#a02c5a;stop-opacity:1;"
         offset="0"
         id="stop80523" />
      <stop
         style="stop-color:#a02c5a;stop-opacity:0;"
         offset="1"
         id="stop80525" />
    </linearGradient>
    <linearGradient
       inkscape:collect="always"
       id="linearGradient2421">
      <stop
         style="stop-color:#ffd42a;stop-opacity:1;"
         offset="0"
         id="stop2417" />
      <stop
         style="stop-color:#ffd42a;stop-opacity:0;"
         offset="1"
         id="stop2419" />
    </linearGradient>
    <marker
       style="overflow:visible;"
       id="Arrow1Lend"
       refX="0.0"
       refY="0.0"
       orient="auto"
       inkscape:stockid="Arrow1Lend"
       inkscape:isstock="true">
      <path
         transform="scale(0.8) rotate(180) translate(12.5,0)"
         style="fill-rule:evenodd;fill:context-stroke;stroke:context-stroke;stroke-width:1.0pt;"
         d="M 0.0,0.0 L 5.0,-5.0 L -12.5,0.0 L 5.0,5.0 L 0.0,0.0 z "
         id="path1029" />
    </marker>
    <marker
       style="overflow:visible"
       id="Arrow1Lstart"
       refX="0.0"
       refY="0.0"
       orient="auto"
       inkscape:stockid="Arrow1Lstart"
       inkscape:isstock="true">
      <path
         transform="scale(0.8) translate(12.5,0)"
         style="fill-rule:evenodd;fill:context-stroke;stroke:context-stroke;stroke-width:1.0pt"
         d="M 0.0,0.0 L 5.0,-5.0 L -12.5,0.0 L 5.0,5.0 L 0.0,0.0 z "
         id="path1026" />
    </marker>
    <linearGradient
       inkscape:collect="always"
       xlink:href="#linearGradient2421"
       id="linearGradient2423"
       x1="70.108566"
       y1="130.25797"
       x2="70.996017"
       y2="144.25996"
       gradientUnits="userSpaceOnUse"
       gradientTransform="translate(40.44031,14.502732)" />
    <pattern
       patternUnits="userSpaceOnUse"
       width="112.42148"
       height="35.800694"
       patternTransform="translate(135.6364,288.84429)"
       id="pattern30291">
      <g
         aria-label="中文喔 "
         id="text14143-1"
         style="font-size:10.5833px;font-family:'Yu Gothic';-inkscape-font-specification:'Yu Gothic, Normal';fill:#ffffff;stroke-width:0.264583"
         transform="matrix(3.7795276,0,0,3.7795276,-135.6364,-288.84429)">
        <path
           style="color:#000000;-inkscape-font-specification:'Yu Gothic, Normal';-inkscape-stroke:none"
           d="m 39.359779,82.31965 h -2.966218 v 0.625283 q 0,0.07235 -0.07235,0.07235 H 35.95948 q -0.07235,0 -0.07235,-0.07235 l 0.02067,-1.95853 v -0.966347 l -0.02067,-1.302242 q 0,-0.07235 0.07235,-0.07235 l 1.514115,0.02067 h 1.886184 v -0.888832 q 0,-0.961178 -0.07235,-1.353918 0.28422,0.01033 0.578774,0.05168 0.10852,0.02067 0.10852,0.08268 0,0.0155 -0.04134,0.180867 -0.06718,0.211873 -0.06718,0.997352 v 0.930173 h 2.077386 l 1.514115,-0.02067 q 0.07235,0 0.07235,0.07235 l -0.02067,1.167884 v 1.069699 l 0.02067,1.948195 q 0,0.07235 -0.07235,0.07235 H 43.09597 q -0.07235,0 -0.07235,-0.07235 V 82.31965 H 39.8662 v 1.607132 l 0.02067,1.896519 q 0,0.07235 -0.07235,0.07235 h -0.403075 q -0.07235,0 -0.07235,-0.07235 l 0.02067,-1.886184 z m 0,-0.444416 v -2.754345 h -2.966218 v 2.754345 z m 0.506427,0 h 3.15742 v -2.754345 h -3.15742 z"
           id="path30070" />
        <path
           style="color:#000000;-inkscape-font-specification:'Yu Gothic, Normal';-inkscape-stroke:none"
           d="m 47.710664,78.909017 h -0.423746 l -1.410762,0.02067 q -0.07235,0 -0.07235,-0.07235 v -0.372069 q 0,-0.07235 0.07235,-0.07235 l 1.410762,0.02067 h 2.707837 V 77.63778 q 0,-0.82682 -0.08268,-1.142045 0.387572,0.02067 0.578774,0.05168 0.118855,0.02067 0.118855,0.08785 0,0.04134 -0.06201,0.191202 -0.05684,0.129191 -0.05684,0.811317 v 0.795815 h 2.868033 l 1.421097,-0.02067 q 0.07235,0 0.07235,0.07235 v 0.372069 q 0,0.07235 -0.07235,0.07235 l -1.421097,-0.02067 h -0.568439 q -0.692462,2.552807 -2.139398,4.010078 1.705317,1.477941 4.351142,2.361605 -0.129191,0.113688 -0.263549,0.351399 -0.08268,0.134358 -0.129191,0.134358 -0.03101,0 -0.12919,-0.04134 -2.640657,-1.04386 -4.201281,-2.454622 -1.601964,1.441767 -4.159939,2.402946 -0.113688,0.03617 -0.139526,0.03617 -0.05684,0 -0.124023,-0.113687 -0.129191,-0.222208 -0.28422,-0.30489 2.749178,-0.950844 4.330471,-2.382276 -0.780311,-0.811318 -1.291906,-1.756993 -0.490925,-0.888832 -0.899167,-2.24275 z m 0.506427,0 q 0.335896,1.142045 0.847491,2.072218 0.511595,0.909502 1.204057,1.591629 0.780312,-0.780312 1.302242,-1.813837 0.403075,-0.816485 0.676959,-1.85001 z"
           id="path30072" />
        <path
           style="color:#000000;-inkscape-font-specification:'Yu Gothic, Normal';-inkscape-stroke:none"
           d="m 57.027895,82.31965 v 0.981849 q 0,0.08785 -0.08268,0.08785 h -0.310058 q -0.08268,0 -0.08268,-0.08785 l 0.02067,-2.475293 v -1.343583 l -0.02067,-1.906854 q 0,-0.07235 0.08268,-0.07235 l 0.754474,0.02067 h 0.558103 l 0.754474,-0.02067 q 0.07235,0 0.07235,0.07235 l -0.02067,1.54512 v 1.483109 l 0.02067,2.340935 q 0,0.08268 -0.07235,0.08268 H 58.39215 q -0.07235,0 -0.07235,-0.08268 V 82.31965 Z m 0,-0.444416 h 1.291907 v -3.927396 h -1.291907 z m 4.097928,0.0155 q 0.470254,-0.80615 0.728635,-1.452103 h -0.103352 l -1.281572,0.02067 q -0.07751,0 -0.07751,-0.07235 V 80.0769 q 0,-0.07235 0.07751,-0.07235 l 1.281572,0.02067 h 1.989536 l 1.286739,-0.02067 q 0.07751,0 0.07751,0.07235 v 0.310058 q 0,0.07235 -0.07751,0.07235 l -1.286739,-0.02067 H 62.35055 q -0.377236,0.82682 -0.7183,1.426265 1.043861,-0.03617 2.604484,-0.186034 -0.315225,-0.37207 -0.568439,-0.614948 -0.03617,-0.03617 -0.03617,-0.05684 0,-0.03101 0.08268,-0.09302 l 0.118855,-0.08268 q 0.04651,-0.03617 0.07752,-0.03617 0.02584,0 0.07235,0.04651 0.692462,0.635618 1.297075,1.514115 0.02067,0.03101 0.02067,0.05168 0,0.03101 -0.07235,0.08268 l -0.134359,0.09819 q -0.09819,0.06201 -0.12919,0.06201 -0.02584,0 -0.06201,-0.05168 -0.310058,-0.459919 -0.403075,-0.583942 -1.736322,0.19637 -3.513986,0.294555 -0.372069,0.02584 -0.423745,0.06718 -0.06718,0.05168 -0.134359,0.05168 -0.06718,0 -0.09819,-0.103352 -0.06718,-0.232543 -0.103352,-0.444416 0.310057,0.0155 0.558103,0.0155 0.149862,0 0.341064,-0.0052 z m 1.255733,3.224599 v -1.24023 h -0.537433 l -1.302242,0.02067 q -0.07751,0 -0.07751,-0.07235 v -0.30489 q 0,-0.07752 0.07751,-0.07752 l 1.302242,0.02067 h 0.537433 q 0,-0.671792 -0.07235,-0.981849 0.227376,0.01033 0.516763,0.05168 0.118855,0.02067 0.118855,0.08785 0,0.03101 -0.06718,0.175699 -0.05168,0.134358 -0.05168,0.666624 h 0.676959 l 1.291907,-0.02067 q 0.07235,0 0.07235,0.07752 v 0.30489 q 0,0.07235 -0.07235,0.07235 l -1.291907,-0.02067 h -0.676959 v 1.24023 h 1.260901 l 1.467606,-0.02067 q 0.07751,0 0.07751,0.06201 v 0.320393 q 0,0.07235 -0.07751,0.07235 l -1.467606,-0.02067 h -2.945547 l -1.467606,0.02067 q -0.07752,0 -0.07752,-0.07235 v -0.320393 q 0,-0.06201 0.07752,-0.06201 l 1.467606,0.02067 z m -2.315097,-5.989279 v 0.485757 q 0,1.963698 -0.191202,3.167755 -0.253214,1.550288 -1.038693,2.697501 -0.07235,0.113688 -0.103352,0.113688 -0.03101,0 -0.118856,-0.09302 -0.10852,-0.124023 -0.273884,-0.191202 0.862994,-1.105873 1.090369,-2.697502 0.170532,-1.198889 0.170532,-3.353789 l -0.02067,-2.123895 q 0,-0.07235 0.08268,-0.07235 l 1.431433,0.02067 h 2.516634 l 1.431433,-0.02067 q 0.07235,0 0.07235,0.07235 l -0.02067,0.682127 v 0.578774 l 0.02067,0.682127 q 0,0.07235 -0.07235,0.07235 l -1.431433,-0.02067 z m 0,-0.41341 h 4.57335 v -1.21956 h -4.57335 z"
           id="path30074" />
      </g>
    </pattern>
    <filter
       style="color-interpolation-filters:sRGB;"
       inkscape:label="Drop Shadow"
       id="filter33421"
       x="0"
       y="0"
       width="1.0672385"
       height="1.2111427">
      <feFlood
         flood-opacity="0.729412"
         flood-color="rgb(67,14,14)"
         result="flood"
         id="feFlood33411" />
      <feComposite
         in="flood"
         in2="SourceGraphic"
         operator="in"
         result="composite1"
         id="feComposite33413" />
      <feGaussianBlur
         in="composite1"
         stdDeviation="2.77556e-17"
         result="blur"
         id="feGaussianBlur33415" />
      <feOffset
         dx="1"
         dy="1"
         result="offset"
         id="feOffset33417" />
      <feComposite
         in="SourceGraphic"
         in2="offset"
         operator="over"
         result="fbSourceGraphic"
         id="feComposite33419" />
      <feColorMatrix
         result="fbSourceGraphicAlpha"
         in="fbSourceGraphic"
         values="0 0 0 -1 0 0 0 0 -1 0 0 0 0 -1 0 0 0 0 1 0"
         id="feColorMatrix33441" />
      <feFlood
         id="feFlood33443"
         flood-opacity="0.729412"
         flood-color="rgb(67,14,14)"
         result="flood"
         in="fbSourceGraphic" />
      <feComposite
         in2="fbSourceGraphic"
         id="feComposite33445"
         in="flood"
         operator="in"
         result="composite1" />
      <feGaussianBlur
         id="feGaussianBlur33447"
         in="composite1"
         stdDeviation="2.77556e-17"
         result="blur" />
      <feOffset
         id="feOffset33449"
         dx="1"
         dy="1"
         result="offset" />
      <feComposite
         in2="offset"
         id="feComposite33451"
         in="fbSourceGraphic"
         operator="over"
         result="composite2" />
    </filter>
    <linearGradient
       inkscape:collect="always"
       xlink:href="#linearGradient80527"
       id="linearGradient80529"
       x1="84.785202"
       y1="68.330177"
       x2="240.96848"
       y2="198.01807"
       gradientUnits="userSpaceOnUse"
       gradientTransform="translate(0,13.944935)" />
    <linearGradient
       inkscape:collect="always"
       xlink:href="#linearGradient2421"
       id="linearGradient80960"
       gradientUnits="userSpaceOnUse"
       gradientTransform="translate(-12.306958,135.83652)"
       x1="68.365593"
       y1="128.28053"
       x2="69.202293"
       y2="140.83098" />
    <linearGradient
       inkscape:collect="always"
       xlink:href="#linearGradient80527"
       id="linearGradient80998"
       gradientUnits="userSpaceOnUse"
       gradientTransform="translate(-24.053953,207.50593)"
       x1="84.785202"
       y1="68.330177"
       x2="240.96848"
       y2="198.01807" />
    <linearGradient
       inkscape:collect="always"
       xlink:href="#linearGradient2421"
       id="linearGradient82050"
       gradientUnits="userSpaceOnUse"
       gradientTransform="translate(-12.306958,158.98511)"
       x1="70.108566"
       y1="130.25797"
       x2="70.996017"
       y2="144.25996" />
    <linearGradient
       inkscape:collect="always"
       xlink:href="#linearGradient2421"
       id="linearGradient86162"
       gradientUnits="userSpaceOnUse"
       gradientTransform="translate(27.854458,322.14084)"
       x1="70.108566"
       y1="130.25797"
       x2="70.996017"
       y2="144.25996" />
    <linearGradient
       inkscape:collect="always"
       xlink:href="#linearGradient2421"
       id="linearGradient86280"
       gradientUnits="userSpaceOnUse"
       gradientTransform="translate(27.017761,345.01054)"
       x1="68.365593"
       y1="128.28053"
       x2="69.202293"
       y2="140.83098" />
    <linearGradient
       inkscape:collect="always"
       xlink:href="#linearGradient2421"
       id="linearGradient86316"
       gradientUnits="userSpaceOnUse"
       gradientTransform="translate(27.017762,367.60133)"
       x1="70.108566"
       y1="130.25797"
       x2="70.996017"
       y2="144.25996" />
  </defs>
  <g
     inkscape:label="圖層 1"
     inkscape:groupmode="layer"
     id="layer1">
    <rect
       style="fill:url(#linearGradient80998);fill-opacity:1;stroke:none;stroke-width:0.264999;stroke-miterlimit:4;stroke-dasharray:none;stroke-opacity:1"
       id="rect2827-5"
       width="273.32071"
       height="187.41992"
       x="-32.910042"
       y="240.68958"
       ry="0" />
    <rect
       style="fill:url(#linearGradient82050);fill-opacity:1;stroke:#ffffff;stroke-width:0.265;stroke-miterlimit:4;stroke-dasharray:none;stroke-opacity:1"
       id="rect2177-8"
       width="121.48207"
       height="16.171314"
       x="13.724911"
       y="285.59467"
       ry="8.0856571"
       inkscape:export-filename="C:\Project\Arina Rescue(P3)\Pictures\Button_H.png"
       inkscape:export-xdpi="96"
       inkscape:export-ydpi="96" />
    <text
       xml:space="preserve"
       style="font-style:normal;font-variant:normal;font-weight:normal;font-stretch:normal;font-size:10.5833px;line-height:1.25;font-family:sans-serif;-inkscape-font-specification:'sans-serif, Normal';font-variant-ligatures:normal;font-variant-caps:normal;font-variant-numeric:normal;font-variant-east-asian:normal;fill:#ffffff;fill-opacity:1;stroke:none;stroke-width:0.264583"
       x="53.485382"
       y="297.52762"
       id="text8313-7"><tspan
         sodipodi:role="line"
         id="tspan86042"
         x="53.485382"
         y="297.52762">編輯模式</tspan></text>
    <rect
       style="opacity:1;fill:url(#linearGradient80529);fill-opacity:1;stroke:none;stroke-width:0.264999;stroke-miterlimit:4;stroke-dasharray:none;stroke-opacity:1"
       id="rect2827"
       width="273.32071"
       height="187.41992"
       x="-8.8560896"
       y="47.128571"
       ry="0" />
    <rect
       id="rect870"
       width="154.20486"
       height="35.483753"
       x="-443.72211"
       y="52.339569"
       style="opacity:1;fill:#ff0000;fill-opacity:1;stroke:#000000;stroke-width:0.278839;stroke-opacity:1" />
    <rect
       style="opacity:1;fill:#ff0000;fill-opacity:1;stroke:#000000;stroke-width:0.264583;stroke-opacity:1"
       id="rect2173"
       width="108.86055"
       height="36.28685"
       x="-431.50214"
       y="109.12925"
       ry="12.621514" />
    <rect
       style="opacity:1;fill:url(#linearGradient2423);fill-opacity:1;stroke:#ffffff;stroke-width:0.265;stroke-miterlimit:4;stroke-dasharray:none;stroke-opacity:1"
       id="rect2177"
       width="121.48207"
       height="16.171314"
       x="66.472183"
       y="141.11229"
       ry="8.0856571"
       inkscape:export-filename="C:\Project\Arina Rescue(P3)\Pictures\Button_S.png"
       inkscape:export-xdpi="96"
       inkscape:export-ydpi="96" />
    <text
       xml:space="preserve"
       style="font-style:normal;font-variant:normal;font-weight:normal;font-stretch:normal;font-size:10.5833px;line-height:1.25;font-family:sans-serif;-inkscape-font-specification:'sans-serif, Normal';font-variant-ligatures:normal;font-variant-caps:normal;font-variant-numeric:normal;font-variant-east-asian:normal;fill:#000000;fill-opacity:1;stroke:none;stroke-width:0.264583"
       x="106.23265"
       y="153.04266"
       id="text8313"><tspan
         sodipodi:role="line"
         id="tspan84192"
         x="106.23265"
         y="153.04266">編輯模式</tspan></text>
    <text
       xml:space="preserve"
       style="font-style:normal;font-variant:normal;font-weight:normal;font-stretch:normal;font-size:10.5833px;line-height:1.25;font-family:'Yu Gothic';-inkscape-font-specification:'Yu Gothic, Normal';font-variant-ligatures:normal;font-variant-caps:normal;font-variant-numeric:normal;font-variant-east-asian:normal;fill:#ffffff;stroke-width:0.264583"
       x="31.376101"
       y="67.493484"
       id="text14143"><tspan
         sodipodi:role="line"
         id="tspan80109"
         x="31.376101"
         y="67.493484">Arina Rescue</tspan></text>
    <g
       id="g29484">
      <g
         id="text29490"
         style="font-size:10.5833px;line-height:1.25;font-family:'Yu Gothic';-inkscape-font-specification:'Yu Gothic, Normal';opacity:0.090909;fill:#ffffff;stroke-width:0.264583" />
      <g
         id="text29515"
         style="font-size:10.5833px;line-height:1.25;font-family:'Yu Gothic';-inkscape-font-specification:'Yu Gothic, Normal';opacity:0.090909;fill:#ffffff;stroke-width:0.264583" />
      <g
         id="text29540"
         style="font-size:10.5833px;line-height:1.25;font-family:'Yu Gothic';-inkscape-font-specification:'Yu Gothic, Normal';opacity:0.090909;fill:#ffffff;stroke-width:0.264583" />
      <g
         id="text29565"
         style="font-size:10.5833px;line-height:1.25;font-family:'Yu Gothic';-inkscape-font-specification:'Yu Gothic, Normal';opacity:0.090909;fill:#ffffff;stroke-width:0.264583" />
      <g
         id="text29590"
         style="font-size:10.5833px;line-height:1.25;font-family:'Yu Gothic';-inkscape-font-specification:'Yu Gothic, Normal';opacity:0.090909;fill:#ffffff;stroke-width:0.264583" />
      <g
         id="text29615"
         style="font-size:10.5833px;line-height:1.25;font-family:'Yu Gothic';-inkscape-font-specification:'Yu Gothic, Normal';opacity:0.090909;fill:#ffffff;stroke-width:0.264583" />
      <g
         id="text29640"
         style="font-size:10.5833px;line-height:1.25;font-family:'Yu Gothic';-inkscape-font-specification:'Yu Gothic, Normal';opacity:0.090909;fill:#ffffff;stroke-width:0.264583" />
      <g
         id="text29665"
         style="font-size:10.5833px;line-height:1.25;font-family:'Yu Gothic';-inkscape-font-specification:'Yu Gothic, Normal';opacity:0.090909;fill:#ffffff;stroke-width:0.264583" />
      <g
         id="text29690"
         style="font-size:10.5833px;line-height:1.25;font-family:'Yu Gothic';-inkscape-font-specification:'Yu Gothic, Normal';opacity:0.090909;fill:#ffffff;stroke-width:0.264583" />
      <g
         id="text29715"
         style="font-size:10.5833px;line-height:1.25;font-family:'Yu Gothic';-inkscape-font-specification:'Yu Gothic, Normal';opacity:0.090909;fill:#ffffff;stroke-width:0.264583" />
      <g
         id="text29740"
         style="font-size:10.5833px;line-height:1.25;font-family:'Yu Gothic';-inkscape-font-specification:'Yu Gothic, Normal';opacity:0.090909;fill:#ffffff;stroke-width:0.264583" />
    </g>
    <g
       id="g29761">
      <g
         id="text29767"
         style="font-size:10.5833px;line-height:1.25;font-family:'Yu Gothic';-inkscape-font-specification:'Yu Gothic, Normal';opacity:0.090909;fill:#ffffff;stroke-width:0.264583" />
      <g
         id="text29792"
         style="font-size:10.5833px;line-height:1.25;font-family:'Yu Gothic';-inkscape-font-specification:'Yu Gothic, Normal';opacity:0.090909;fill:#ffffff;stroke-width:0.264583" />
      <g
         id="text29817"
         style="font-size:10.5833px;line-height:1.25;font-family:'Yu Gothic';-inkscape-font-specification:'Yu Gothic, Normal';opacity:0.090909;fill:#ffffff;stroke-width:0.264583" />
      <g
         id="text29842"
         style="font-size:10.5833px;line-height:1.25;font-family:'Yu Gothic';-inkscape-font-specification:'Yu Gothic, Normal';opacity:0.090909;fill:#ffffff;stroke-width:0.264583" />
      <g
         id="text29867"
         style="font-size:10.5833px;line-height:1.25;font-family:'Yu Gothic';-inkscape-font-specification:'Yu Gothic, Normal';opacity:0.090909;fill:#ffffff;stroke-width:0.264583" />
      <g
         id="text29892"
         style="font-size:10.5833px;line-height:1.25;font-family:'Yu Gothic';-inkscape-font-specification:'Yu Gothic, Normal';opacity:0.090909;fill:#ffffff;stroke-width:0.264583" />
      <g
         id="text29917"
         style="font-size:10.5833px;line-height:1.25;font-family:'Yu Gothic';-inkscape-font-specification:'Yu Gothic, Normal';opacity:0.090909;fill:#ffffff;stroke-width:0.264583" />
      <g
         id="text29942"
         style="font-size:10.5833px;line-height:1.25;font-family:'Yu Gothic';-inkscape-font-specification:'Yu Gothic, Normal';opacity:0.090909;fill:#ffffff;stroke-width:0.264583" />
      <g
         id="text29967"
         style="font-size:10.5833px;line-height:1.25;font-family:'Yu Gothic';-inkscape-font-specification:'Yu Gothic, Normal';opacity:0.090909;fill:#ffffff;stroke-width:0.264583" />
      <g
         id="text29992"
         style="font-size:10.5833px;line-height:1.25;font-family:'Yu Gothic';-inkscape-font-specification:'Yu Gothic, Normal';opacity:0.090909;fill:#ffffff;stroke-width:0.264583" />
      <g
         id="text30017"
         style="font-size:10.5833px;line-height:1.25;font-family:'Yu Gothic';-inkscape-font-specification:'Yu Gothic, Normal';opacity:0.090909;fill:#ffffff;stroke-width:0.264583" />
    </g>
    <text
       xml:space="preserve"
       style="font-style:normal;font-variant:normal;font-weight:normal;font-stretch:normal;font-size:10.5833px;line-height:1.25;font-family:'Yu Gothic';-inkscape-font-specification:'Yu Gothic, Normal';font-variant-ligatures:normal;font-variant-caps:normal;font-variant-numeric:normal;font-variant-east-asian:normal;fill:#ffffff;stroke-width:0.264583"
       x="35.866451"
       y="93.528709"
       id="text31511"><tspan
         sodipodi:role="line"
         id="tspan31509"
         x="35.866451"
         y="93.528709" /></text>
    <rect
       style="fill:url(#linearGradient80960);fill-opacity:1;stroke:#000000;stroke-width:0.265;stroke-miterlimit:4;stroke-dasharray:none;stroke-opacity:1"
       id="rect2177-3"
       width="121.48207"
       height="16.171314"
       x="13.724912"
       y="262.44608"
       ry="8.0856571"
       inkscape:export-filename="C:\Project\Arina Rescue(P3)\Pictures\Button_D.png"
       inkscape:export-xdpi="96"
       inkscape:export-ydpi="96" />
    <rect
       style="fill:url(#linearGradient86280);fill-opacity:1;stroke:#000000;stroke-width:0.265;stroke-miterlimit:4;stroke-dasharray:none;stroke-opacity:1"
       id="rect2177-3-8"
       width="121.48207"
       height="16.171314"
       x="53.049637"
       y="471.62009"
       ry="8.0856571"
       inkscape:export-filename="C:\Project\Arina Rescue(P3)\Pictures\Button_D.png"
       inkscape:export-xdpi="96"
       inkscape:export-ydpi="96" />
    <text
       xml:space="preserve"
       style="font-style:normal;font-variant:normal;font-weight:normal;font-stretch:normal;font-size:10.5833px;line-height:1.25;font-family:sans-serif;-inkscape-font-specification:'sans-serif, Normal';font-variant-ligatures:normal;font-variant-caps:normal;font-variant-numeric:normal;font-variant-east-asian:normal;fill:#000000;fill-opacity:1;stroke:none;stroke-width:0.264583"
       x="53.485382"
       y="274.37903"
       id="text8313-0"><tspan
         sodipodi:role="line"
         id="tspan86022"
         x="53.485382"
         y="274.37903">編輯模式</tspan></text>
    <rect
       style="fill:url(#linearGradient86162);fill-opacity:1;stroke:#ffffff;stroke-width:0.265;stroke-miterlimit:4;stroke-dasharray:none;stroke-opacity:1"
       id="rect2177-2"
       width="121.48207"
       height="16.171314"
       x="53.886333"
       y="448.7504"
       ry="8.0856571"
       inkscape:export-filename="C:\Project\Arina Rescue(P3)\Pictures\Button_S.png"
       inkscape:export-xdpi="96"
       inkscape:export-ydpi="96" />
    <rect
       style="fill:url(#linearGradient86316);fill-opacity:1;stroke:#ffffff;stroke-width:0.265;stroke-miterlimit:4;stroke-dasharray:none;stroke-opacity:1"
       id="rect2177-8-2"
       width="121.48207"
       height="16.171314"
       x="53.049633"
       y="494.21088"
       ry="8.0856571"
       inkscape:export-filename="C:\Project\Arina Rescue(P3)\Pictures\Button_H.png"
       inkscape:export-xdpi="96"
       inkscape:export-ydpi="96" />
  </g>
</svg>
